<svg width="122" height="122" viewBox="0 0 122 122" fill="none" xmlns="http://www.w3.org/2000/svg">
<path d="M40.4299 107.459C24.8873 107.413 11.4614 98.9115 5.01876 82.805C-1.42393 66.6984 0.553703 46.5793 8.86346 28.5432C24.4061 28.5891 37.8319 37.0905 44.2746 53.1971C50.7173 69.3036 48.7397 89.423 40.4299 107.459Z" fill="white"/>
<path d="M40.4299 107.459C24.8873 107.413 11.4614 98.9115 5.01876 82.805C-1.42393 66.6984 0.553703 46.5793 8.86346 28.5432C24.4061 28.5891 37.8319 37.0905 44.2746 53.1971C50.7173 69.3036 48.7397 89.423 40.4299 107.459Z" fill="url(#paint0_radial_3_2)"/>
<g style="mix-blend-mode:hard-light">
<path d="M40.4299 107.459C24.8873 107.413 11.4614 98.9115 5.01876 82.805C-1.42393 66.6984 0.553703 46.5793 8.86346 28.5432C24.4061 28.5891 37.8319 37.0905 44.2746 53.1971C50.7173 69.3036 48.7397 89.423 40.4299 107.459Z" fill="black" fill-opacity="0.5"/>
</g>
<path style="mix-blend-mode:hard-light" d="M40.4299 107.459C24.8873 107.413 11.4614 98.9115 5.01876 82.805C-1.42393 66.6984 0.553703 46.5793 8.86346 28.5432C24.4061 28.5891 37.8319 37.0905 44.2746 53.1971C50.7173 69.3036 48.7397 89.423 40.4299 107.459Z" fill="url(#paint1_linear_3_2)" fill-opacity="0.5"/>
<path d="M44.1416 53.2505C50.5559 69.2858 48.604 89.3259 40.3383 107.315C24.8932 107.236 11.5601 98.7722 5.15181 82.7516C-1.26257 66.7162 0.689364 46.6761 8.95506 28.6867C24.4002 28.7657 37.7333 37.2296 44.1416 53.2505Z" stroke="url(#paint2_linear_3_2)" stroke-opacity="0.05" stroke-width="0.056338"/>
<path d="M37.1611 108.058C57.7177 102.793 75.6583 88.3249 84.5282 67.2835C93.3986 46.2416 91.2194 23.3197 80.6207 4.9628C60.0642 10.2284 42.1236 24.6961 33.2535 45.7379C24.3834 66.7797 26.5625 89.7015 37.1611 108.058Z" fill="white"/>
<path d="M37.1611 108.058C57.7177 102.793 75.6583 88.3249 84.5282 67.2835C93.3986 46.2416 91.2194 23.3197 80.6207 4.9628C60.0642 10.2284 42.1236 24.6961 33.2535 45.7379C24.3834 66.7797 26.5625 89.7015 37.1611 108.058Z" fill="url(#paint3_radial_3_2)"/>
<path d="M84.3965 67.2276C75.5597 88.1907 57.7019 102.615 37.2309 107.893C26.7006 89.5886 24.5487 66.7563 33.3855 45.7934C42.2223 24.8306 60.0799 10.4059 80.551 5.12851C91.0811 23.4325 93.2329 46.265 84.3965 67.2276Z" stroke="url(#paint4_linear_3_2)" stroke-opacity="0.05" stroke-width="0.056338"/>
<path d="M36.7712 107.802C49.7611 118.123 67.1519 121.749 84.2674 115.972C101.383 110.194 114.404 96.3012 120.63 79.4942C107.64 69.173 90.2485 65.5465 73.1334 71.3242C56.0178 77.102 42.996 90.9947 36.7712 107.802Z" fill="white"/>
<path d="M36.7712 107.802C49.7611 118.123 67.1519 121.749 84.2674 115.972C101.383 110.194 114.404 96.3012 120.63 79.4942C107.64 69.173 90.2485 65.5465 73.1334 71.3242C56.0178 77.102 42.996 90.9947 36.7712 107.802Z" fill="url(#paint5_radial_3_2)"/>
<g style="mix-blend-mode:hard-light">
<path d="M36.7712 107.802C49.7611 118.123 67.1519 121.749 84.2674 115.972C101.383 110.194 114.404 96.3012 120.63 79.4942C107.64 69.173 90.2485 65.5465 73.1334 71.3242C56.0178 77.102 42.996 90.9947 36.7712 107.802Z" fill="black" fill-opacity="0.2"/>
</g>
<path style="mix-blend-mode:hard-light" d="M36.7712 107.802C49.7611 118.123 67.1519 121.749 84.2674 115.972C101.383 110.194 114.404 96.3012 120.63 79.4942C107.64 69.173 90.2485 65.5465 73.1334 71.3242C56.0178 77.102 42.996 90.9947 36.7712 107.802Z" fill="url(#paint6_linear_3_2)" fill-opacity="0.5"/>
<path d="M84.2217 115.836C67.1895 121.585 49.8859 117.996 36.9416 107.754C43.1674 91.0262 56.1424 77.2108 73.1792 71.46C90.2114 65.7102 107.515 69.2991 120.459 79.542C114.233 96.2697 101.258 110.085 84.2217 115.836Z" stroke="url(#paint7_linear_3_2)" stroke-opacity="0.05" stroke-width="0.056338"/>
<defs>
<radialGradient id="paint0_radial_3_2" cx="0" cy="0" r="1" gradientUnits="userSpaceOnUse" gradientTransform="translate(-15.2756 76.3669) rotate(-10.029) scale(91.2824 90.402)">
<stop stop-color="#00B0BB"/>
<stop offset="1" stop-color="#00DB65"/>
</radialGradient>
<linearGradient id="paint1_linear_3_2" x1="37.5677" y1="24.4665" x2="8.28457" y2="95.0045" gradientUnits="userSpaceOnUse">
<stop stop-color="#18E299"/>
<stop offset="1"/>
</linearGradient>
<linearGradient id="paint2_linear_3_2" x1="40.4032" y1="40.7461" x2="8.95277" y2="95.2922" gradientUnits="userSpaceOnUse">
<stop/>
<stop offset="1" stop-opacity="0"/>
</linearGradient>
<radialGradient id="paint3_radial_3_2" cx="0" cy="0" r="1" gradientUnits="userSpaceOnUse" gradientTransform="translate(41.2464 106.151) rotate(-75.7542) scale(109.925 120.867)">
<stop stop-color="#0600BB"/>
<stop offset="0.712616" stop-color="#ED6678"/>
</radialGradient>
<linearGradient id="paint4_linear_3_2" x1="38.6438" y1="29.8437" x2="79.0768" y2="83.2238" gradientUnits="userSpaceOnUse">
<stop/>
<stop offset="1" stop-opacity="0"/>
</linearGradient>
<radialGradient id="paint5_radial_3_2" cx="0" cy="0" r="1" gradientUnits="userSpaceOnUse" gradientTransform="translate(39.8806 109.384) rotate(-20.3525) scale(94.3482 88.0433)">
<stop stop-color="#00B0BB"/>
<stop offset="1" stop-color="#00DB65"/>
</radialGradient>
<linearGradient id="paint6_linear_3_2" x1="85.4396" y1="66.1194" x2="51.0412" y2="116.885" gradientUnits="userSpaceOnUse">
<stop stop-color="#00B1BC"/>
<stop offset="1"/>
</linearGradient>
<linearGradient id="paint7_linear_3_2" x1="85.4397" y1="66.1194" x2="72.0242" y2="121.192" gradientUnits="userSpaceOnUse">
<stop/>
<stop offset="1" stop-opacity="0"/>
</linearGradient>
</defs>
</svg>
