<svg width="160" height="24" viewBox="0 0 160 24" fill="none" xmlns="http://www.w3.org/2000/svg">
<g clip-path="url(#clip0_1_2)">
<path d="M7.95343 21.1394C4.89586 21.1304 2.25471 19.458 0.987297 16.2895C-0.280117 13.121 0.108925 9.16314 1.74363 5.61504C4.8012 5.62409 7.44235 7.29648 8.70976 10.465C9.97718 13.6335 9.58814 17.5913 7.95343 21.1394Z" fill="white"/>
<path d="M7.95343 21.1394C4.89586 21.1304 2.25471 19.458 0.987297 16.2895C-0.280117 13.121 0.108925 9.16314 1.74363 5.61504C4.8012 5.62409 7.44235 7.29648 8.70976 10.465C9.97718 13.6335 9.58814 17.5913 7.95343 21.1394Z" fill="url(#paint0_radial_1_2)"/>
<g style="mix-blend-mode:hard-light">
<path d="M7.95343 21.1394C4.89586 21.1304 2.25471 19.458 0.987297 16.2895C-0.280117 13.121 0.108925 9.16314 1.74363 5.61504C4.8012 5.62409 7.44235 7.29648 8.70976 10.465C9.97718 13.6335 9.58814 17.5913 7.95343 21.1394Z" fill="black" fill-opacity="0.5"/>
</g>
<path style="mix-blend-mode:hard-light" d="M7.95343 21.1394C4.89586 21.1304 2.25471 19.458 0.987297 16.2895C-0.280117 13.121 0.108925 9.16314 1.74363 5.61504C4.8012 5.62409 7.44235 7.29648 8.70976 10.465C9.97718 13.6335 9.58814 17.5913 7.95343 21.1394Z" fill="url(#paint1_linear_1_2)" fill-opacity="0.5"/>
<path d="M7.9354 21.1112C4.89702 21.0957 2.27411 19.4306 1.01347 16.279C-0.248375 13.1244 0.135612 9.18217 1.76165 5.64326C4.80004 5.65881 7.42295 7.32384 8.68359 10.4755C9.94543 13.63 9.56144 17.5723 7.9354 21.1112Z" stroke="url(#paint2_linear_1_2)" stroke-opacity="0.05" stroke-width="0.056338"/>
<path d="M7.31038 21.2574C11.3543 20.2215 14.8836 17.3754 16.6285 13.2361C18.3735 9.09671 17.9448 4.58749 15.8598 0.976288C11.8159 2.01214 8.2866 4.85826 6.54167 8.99762C4.79674 13.137 5.2254 17.6462 7.31038 21.2574Z" fill="white"/>
<path d="M7.31038 21.2574C11.3543 20.2215 14.8836 17.3754 16.6285 13.2361C18.3735 9.09671 17.9448 4.58749 15.8598 0.976288C11.8159 2.01214 8.2866 4.85826 6.54167 8.99762C4.79674 13.137 5.2254 17.6462 7.31038 21.2574Z" fill="url(#paint3_radial_1_2)"/>
<path d="M16.6025 13.2251C14.8642 17.349 11.3512 20.1866 7.32411 21.2248C5.25257 17.624 4.82926 13.1324 6.56764 9.00856C8.30603 4.88473 11.819 2.04707 15.8461 1.0089C17.9176 4.60968 18.3409 9.10132 16.6025 13.2251Z" stroke="url(#paint4_linear_1_2)" stroke-opacity="0.05" stroke-width="0.056338"/>
<path d="M7.23368 21.2069C9.78906 23.2373 13.2102 23.9506 16.5772 22.8141C19.9441 21.6775 22.5058 18.9445 23.7304 15.6382C21.175 13.6078 17.7538 12.8944 14.3869 14.031C11.0199 15.1676 8.45822 17.9006 7.23368 21.2069Z" fill="white"/>
<path d="M7.23368 21.2069C9.78906 23.2373 13.2102 23.9506 16.5772 22.8141C19.9441 21.6775 22.5058 18.9445 23.7304 15.6382C21.175 13.6078 17.7538 12.8944 14.3869 14.031C11.0199 15.1676 8.45822 17.9006 7.23368 21.2069Z" fill="url(#paint5_radial_1_2)"/>
<g style="mix-blend-mode:hard-light">
<path d="M7.23368 21.2069C9.78906 23.2373 13.2102 23.9506 16.5772 22.8141C19.9441 21.6775 22.5058 18.9445 23.7304 15.6382C21.175 13.6078 17.7538 12.8944 14.3869 14.031C11.0199 15.1676 8.45822 17.9006 7.23368 21.2069Z" fill="black" fill-opacity="0.2"/>
</g>
<path style="mix-blend-mode:hard-light" d="M7.23368 21.2069C9.78906 23.2373 13.2102 23.9506 16.5772 22.8141C19.9441 21.6775 22.5058 18.9445 23.7304 15.6382C21.175 13.6078 17.7538 12.8944 14.3869 14.031C11.0199 15.1676 8.45822 17.9006 7.23368 21.2069Z" fill="url(#paint6_linear_1_2)" fill-opacity="0.5"/>
<path d="M16.5682 22.7874C13.2176 23.9184 9.81361 23.2124 7.2672 21.1975C8.49194 17.9068 11.0444 15.189 14.3959 14.0577C17.7465 12.9266 21.1504 13.6326 23.6968 15.6476C22.4721 18.9383 19.9196 21.656 16.5682 22.7874Z" stroke="url(#paint7_linear_1_2)" stroke-opacity="0.05" stroke-width="0.056338"/>
<path d="M36.56 18L33.932 13.23H33.194V18H30.116V5.364H35.282C36.278 5.364 37.124 5.538 37.82 5.886C38.528 6.234 39.056 6.714 39.404 7.326C39.752 7.926 39.926 8.598 39.926 9.342C39.926 10.182 39.686 10.932 39.206 11.592C38.738 12.252 38.042 12.72 37.118 12.996L40.034 18H36.56ZM33.194 11.052H35.102C35.666 11.052 36.086 10.914 36.362 10.638C36.65 10.362 36.794 9.972 36.794 9.468C36.794 8.988 36.65 8.61 36.362 8.334C36.086 8.058 35.666 7.92 35.102 7.92H33.194V11.052ZM41.2462 12.96C41.2462 11.928 41.4382 11.022 41.8222 10.242C42.2182 9.462 42.7522 8.862 43.4242 8.442C44.0962 8.022 44.8462 7.812 45.6742 7.812C46.3822 7.812 47.0002 7.956 47.5282 8.244C48.0682 8.532 48.4822 8.91 48.7702 9.378V7.956H51.8482V18H48.7702V16.578C48.4702 17.046 48.0502 17.424 47.5102 17.712C46.9822 18 46.3642 18.144 45.6562 18.144C44.8402 18.144 44.0962 17.934 43.4242 17.514C42.7522 17.082 42.2182 16.476 41.8222 15.696C41.4382 14.904 41.2462 13.992 41.2462 12.96ZM48.7702 12.978C48.7702 12.21 48.5542 11.604 48.1222 11.16C47.7022 10.716 47.1862 10.494 46.5742 10.494C45.9622 10.494 45.4402 10.716 45.0082 11.16C44.5882 11.592 44.3782 12.192 44.3782 12.96C44.3782 13.728 44.5882 14.34 45.0082 14.796C45.4402 15.24 45.9622 15.462 46.5742 15.462C47.1862 15.462 47.7022 15.24 48.1222 14.796C48.5542 14.352 48.7702 13.746 48.7702 12.978ZM60.195 7.848C61.371 7.848 62.307 8.232 63.003 9C63.711 9.756 64.065 10.8 64.065 12.132V18H61.005V12.546C61.005 11.874 60.831 11.352 60.483 10.98C60.135 10.608 59.667 10.422 59.079 10.422C58.491 10.422 58.023 10.608 57.675 10.98C57.327 11.352 57.153 11.874 57.153 12.546V18H54.075V7.956H57.153V9.288C57.465 8.844 57.885 8.496 58.413 8.244C58.941 7.98 59.535 7.848 60.195 7.848ZM70.0199 7.812C70.7279 7.812 71.3459 7.956 71.8739 8.244C72.4139 8.532 72.8279 8.91 73.1159 9.378V7.956H76.1939V17.982C76.1939 18.906 76.0079 19.74 75.6359 20.484C75.2759 21.24 74.7179 21.84 73.9619 22.284C73.2179 22.728 72.2879 22.95 71.1719 22.95C69.6839 22.95 68.4779 22.596 67.5539 21.888C66.6299 21.192 66.1019 20.244 65.9699 19.044H69.0119C69.1079 19.428 69.3359 19.728 69.6959 19.944C70.0559 20.172 70.4999 20.286 71.0279 20.286C71.6639 20.286 72.1679 20.1 72.5399 19.728C72.9239 19.368 73.1159 18.786 73.1159 17.982V16.56C72.8159 17.028 72.4019 17.412 71.8739 17.712C71.3459 18 70.7279 18.144 70.0199 18.144C69.1919 18.144 68.4419 17.934 67.7699 17.514C67.0979 17.082 66.5639 16.476 66.1679 15.696C65.7839 14.904 65.5919 13.992 65.5919 12.96C65.5919 11.928 65.7839 11.022 66.1679 10.242C66.5639 9.462 67.0979 8.862 67.7699 8.442C68.4419 8.022 69.1919 7.812 70.0199 7.812ZM73.1159 12.978C73.1159 12.21 72.8999 11.604 72.4679 11.16C72.0479 10.716 71.5319 10.494 70.9199 10.494C70.3079 10.494 69.7859 10.716 69.3539 11.16C68.9339 11.592 68.7239 12.192 68.7239 12.96C68.7239 13.728 68.9339 14.34 69.3539 14.796C69.7859 15.24 70.3079 15.462 70.9199 15.462C71.5319 15.462 72.0479 15.24 72.4679 14.796C72.8999 14.352 73.1159 13.746 73.1159 12.978ZM82.9927 18.144C82.0087 18.144 81.1207 17.934 80.3287 17.514C79.5487 17.094 78.9307 16.494 78.4747 15.714C78.0307 14.934 77.8087 14.022 77.8087 12.978C77.8087 11.946 78.0367 11.04 78.4927 10.26C78.9487 9.468 79.5727 8.862 80.3647 8.442C81.1567 8.022 82.0447 7.812 83.0287 7.812C84.0127 7.812 84.9007 8.022 85.6927 8.442C86.4847 8.862 87.1087 9.468 87.5647 10.26C88.0207 11.04 88.2487 11.946 88.2487 12.978C88.2487 14.01 88.0147 14.922 87.5467 15.714C87.0907 16.494 86.4607 17.094 85.6567 17.514C84.8647 17.934 83.9767 18.144 82.9927 18.144ZM82.9927 15.48C83.5807 15.48 84.0787 15.264 84.4867 14.832C84.9067 14.4 85.1167 13.782 85.1167 12.978C85.1167 12.174 84.9127 11.556 84.5047 11.124C84.1087 10.692 83.6167 10.476 83.0287 10.476C82.4287 10.476 81.9307 10.692 81.5347 11.124C81.1387 11.544 80.9407 12.162 80.9407 12.978C80.9407 13.782 81.1327 14.4 81.5167 14.832C81.9127 15.264 82.4047 15.48 82.9927 15.48ZM92.9596 4.68V18H89.8816V4.68H92.9596ZM96.7382 6.912C96.1982 6.912 95.7542 6.756 95.4062 6.444C95.0702 6.12 94.9022 5.724 94.9022 5.256C94.9022 4.776 95.0702 4.38 95.4062 4.068C95.7542 3.744 96.1982 3.582 96.7382 3.582C97.2662 3.582 97.6982 3.744 98.0342 4.068C98.3822 4.38 98.5562 4.776 98.5562 5.256C98.5562 5.724 98.3822 6.12 98.0342 6.444C97.6982 6.756 97.2662 6.912 96.7382 6.912ZM98.2682 7.956V18H95.1902V7.956H98.2682Z" fill="white"/>
</g>
<defs>
<radialGradient id="paint0_radial_1_2" cx="0" cy="0" r="1" gradientUnits="userSpaceOnUse" gradientTransform="translate(-3.00503 15.023) rotate(-10.029) scale(17.9572 17.784)">
<stop stop-color="#00B0BB"/>
<stop offset="1" stop-color="#00DB65"/>
</radialGradient>
<linearGradient id="paint1_linear_1_2" x1="7.39036" y1="4.81308" x2="1.62975" y2="18.6894" gradientUnits="userSpaceOnUse">
<stop stop-color="#40E218"/>
<stop offset="1"/>
</linearGradient>
<linearGradient id="paint2_linear_1_2" x1="7.94816" y1="8.01562" x2="1.7612" y2="18.746" gradientUnits="userSpaceOnUse">
<stop/>
<stop offset="1" stop-opacity="0"/>
</linearGradient>
<radialGradient id="paint3_radial_1_2" cx="0" cy="0" r="1" gradientUnits="userSpaceOnUse" gradientTransform="translate(8.11404 20.8822) rotate(-75.7542) scale(21.6246 23.7772)">
<stop stop-color="#0600BB"/>
<stop offset="0.712616" stop-color="#ED6678"/>
</radialGradient>
<linearGradient id="paint4_linear_1_2" x1="7.60205" y1="5.87091" x2="15.5561" y2="16.3719" gradientUnits="userSpaceOnUse">
<stop stop-color="#DF4B4B"/>
<stop offset="1" stop-opacity="0"/>
</linearGradient>
<radialGradient id="paint5_radial_1_2" cx="0" cy="0" r="1" gradientUnits="userSpaceOnUse" gradientTransform="translate(7.84537 21.5181) rotate(-20.3525) scale(18.5603 17.32)">
<stop stop-color="#00B0BB"/>
<stop offset="1" stop-color="#00DB65"/>
</radialGradient>
<linearGradient id="paint6_linear_1_2" x1="16.8078" y1="13.0071" x2="10.0409" y2="22.9937" gradientUnits="userSpaceOnUse">
<stop stop-color="#00B1BC"/>
<stop offset="1"/>
</linearGradient>
<linearGradient id="paint7_linear_1_2" x1="16.8078" y1="13.0071" x2="14.1687" y2="23.841" gradientUnits="userSpaceOnUse">
<stop/>
<stop offset="1" stop-opacity="0"/>
</linearGradient>
<clipPath id="clip0_1_2">
<rect width="160" height="24" fill="white"/>
</clipPath>
</defs>
</svg>
