<svg width="160" height="24" viewBox="0 0 160 24" fill="none" xmlns="http://www.w3.org/2000/svg">
<path d="M7.95343 21.1394C4.89586 21.1304 2.25471 19.458 0.987297 16.2895C-0.280117 13.121 0.108925 9.16314 1.74363 5.61504C4.8012 5.62409 7.44235 7.29648 8.70976 10.465C9.97718 13.6335 9.58814 17.5913 7.95343 21.1394Z" fill="white"/>
<path d="M7.95343 21.1394C4.89586 21.1304 2.25471 19.458 0.987297 16.2895C-0.280117 13.121 0.108925 9.16314 1.74363 5.61504C4.8012 5.62409 7.44235 7.29648 8.70976 10.465C9.97718 13.6335 9.58814 17.5913 7.95343 21.1394Z" fill="url(#paint0_radial_1_2)"/>
<g style="mix-blend-mode:hard-light">
<path d="M7.95343 21.1394C4.89586 21.1304 2.25471 19.458 0.987297 16.2895C-0.280117 13.121 0.108925 9.16314 1.74363 5.61504C4.8012 5.62409 7.44235 7.29648 8.70976 10.465C9.97718 13.6335 9.58814 17.5913 7.95343 21.1394Z" fill="black" fill-opacity="0.5"/>
</g>
<path style="mix-blend-mode:hard-light" d="M7.95343 21.1394C4.89586 21.1304 2.25471 19.458 0.987297 16.2895C-0.280117 13.121 0.108925 9.16314 1.74363 5.61504C4.8012 5.62409 7.44235 7.29648 8.70976 10.465C9.97718 13.6335 9.58814 17.5913 7.95343 21.1394Z" fill="url(#paint1_linear_1_2)" fill-opacity="0.5"/>
<path d="M7.9354 21.1112C4.89702 21.0957 2.27411 19.4306 1.01347 16.279C-0.248375 13.1244 0.135612 9.18217 1.76165 5.64326C4.80004 5.65881 7.42295 7.32384 8.68359 10.4755C9.94543 13.63 9.56144 17.5723 7.9354 21.1112Z" stroke="url(#paint2_linear_1_2)" stroke-opacity="0.05" stroke-width="0.056338"/>
<path d="M7.31038 21.2574C11.3543 20.2215 14.8836 17.3754 16.6285 13.2361C18.3735 9.09671 17.9448 4.58749 15.8598 0.976288C11.8159 2.01214 8.2866 4.85826 6.54167 8.99762C4.79674 13.137 5.2254 17.6462 7.31038 21.2574Z" fill="white"/>
<path d="M7.31038 21.2574C11.3543 20.2215 14.8836 17.3754 16.6285 13.2361C18.3735 9.09671 17.9448 4.58749 15.8598 0.976288C11.8159 2.01214 8.2866 4.85826 6.54167 8.99762C4.79674 13.137 5.2254 17.6462 7.31038 21.2574Z" fill="url(#paint3_radial_1_2)"/>
<path d="M16.6025 13.2251C14.8642 17.349 11.3512 20.1866 7.32411 21.2248C5.25257 17.624 4.82926 13.1324 6.56764 9.00856C8.30603 4.88473 11.819 2.04707 15.8461 1.0089C17.9176 4.60968 18.3409 9.10132 16.6025 13.2251Z" stroke="url(#paint4_linear_1_2)" stroke-opacity="0.05" stroke-width="0.056338"/>
<path d="M7.23368 21.2069C9.78906 23.2373 13.2102 23.9506 16.5772 22.8141C19.9441 21.6775 22.5058 18.9445 23.7304 15.6382C21.175 13.6078 17.7538 12.8944 14.3869 14.031C11.0199 15.1676 8.45822 17.9006 7.23368 21.2069Z" fill="white"/>
<path d="M7.23368 21.2069C9.78906 23.2373 13.2102 23.9506 16.5772 22.8141C19.9441 21.6775 22.5058 18.9445 23.7304 15.6382C21.175 13.6078 17.7538 12.8944 14.3869 14.031C11.0199 15.1676 8.45822 17.9006 7.23368 21.2069Z" fill="url(#paint5_radial_1_2)"/>
<g style="mix-blend-mode:hard-light">
<path d="M7.23368 21.2069C9.78906 23.2373 13.2102 23.9506 16.5772 22.8141C19.9441 21.6775 22.5058 18.9445 23.7304 15.6382C21.175 13.6078 17.7538 12.8944 14.3869 14.031C11.0199 15.1676 8.45822 17.9006 7.23368 21.2069Z" fill="black" fill-opacity="0.2"/>
</g>
<path style="mix-blend-mode:hard-light" d="M7.23368 21.2069C9.78906 23.2373 13.2102 23.9506 16.5772 22.8141C19.9441 21.6775 22.5058 18.9445 23.7304 15.6382C21.175 13.6078 17.7538 12.8944 14.3869 14.031C11.0199 15.1676 8.45822 17.9006 7.23368 21.2069Z" fill="url(#paint6_linear_1_2)" fill-opacity="0.5"/>
<path d="M16.5682 22.7874C13.2176 23.9184 9.81361 23.2124 7.2672 21.1975C8.49194 17.9068 11.0444 15.189 14.3959 14.0577C17.7465 12.9266 21.1504 13.6326 23.6968 15.6476C22.4721 18.9383 19.9196 21.656 16.5682 22.7874Z" stroke="url(#paint7_linear_1_2)" stroke-opacity="0.05" stroke-width="0.056338"/>
<path d="M34.46 20L32.562 16.555H32.029V20H29.806V10.874H33.537C34.2563 10.874 34.8673 10.9997 35.37 11.251C35.8813 11.5023 36.2627 11.849 36.514 12.291C36.7653 12.7243 36.891 13.2097 36.891 13.747C36.891 14.3537 36.7177 14.8953 36.371 15.372C36.033 15.8487 35.5303 16.1867 34.863 16.386L36.969 20H34.46ZM32.029 14.982H33.407C33.8143 14.982 34.1177 14.8823 34.317 14.683C34.525 14.4837 34.629 14.202 34.629 13.838C34.629 13.4913 34.525 13.2183 34.317 13.019C34.1177 12.8197 33.8143 12.72 33.407 12.72H32.029V14.982ZM37.8445 16.36C37.8445 15.6147 37.9831 14.9603 38.2605 14.397C38.5465 13.8337 38.9321 13.4003 39.4175 13.097C39.9028 12.7937 40.4445 12.642 41.0425 12.642C41.5538 12.642 42.0001 12.746 42.3815 12.954C42.7715 13.162 43.0705 13.435 43.2785 13.773V12.746H45.5015V20H43.2785V18.973C43.0618 19.311 42.7585 19.584 42.3685 19.792C41.9871 20 41.5408 20.104 41.0295 20.104C40.4401 20.104 39.9028 19.9523 39.4175 19.649C38.9321 19.337 38.5465 18.8993 38.2605 18.336C37.9831 17.764 37.8445 17.1053 37.8445 16.36ZM43.2785 16.373C43.2785 15.8183 43.1225 15.3807 42.8105 15.06C42.5071 14.7393 42.1345 14.579 41.6925 14.579C41.2505 14.579 40.8735 14.7393 40.5615 15.06C40.2581 15.372 40.1065 15.8053 40.1065 16.36C40.1065 16.9147 40.2581 17.3567 40.5615 17.686C40.8735 18.0067 41.2505 18.167 41.6925 18.167C42.1345 18.167 42.5071 18.0067 42.8105 17.686C43.1225 17.3653 43.2785 16.9277 43.2785 16.373ZM51.5297 12.668C52.379 12.668 53.055 12.9453 53.5577 13.5C54.069 14.046 54.3247 14.8 54.3247 15.762V20H52.1147V16.061C52.1147 15.5757 51.989 15.1987 51.7377 14.93C51.4864 14.6613 51.1484 14.527 50.7237 14.527C50.299 14.527 49.961 14.6613 49.7097 14.93C49.4584 15.1987 49.3327 15.5757 49.3327 16.061V20H47.1097V12.746H49.3327V13.708C49.558 13.3873 49.8614 13.136 50.2427 12.954C50.624 12.7633 51.053 12.668 51.5297 12.668ZM58.6255 12.642C59.1368 12.642 59.5831 12.746 59.9645 12.954C60.3545 13.162 60.6535 13.435 60.8615 13.773V12.746H63.0845V19.987C63.0845 20.6543 62.9501 21.2567 62.6815 21.794C62.4215 22.34 62.0185 22.7733 61.4725 23.094C60.9351 23.4147 60.2635 23.575 59.4575 23.575C58.3828 23.575 57.5118 23.3193 56.8445 22.808C56.1771 22.3053 55.7958 21.6207 55.7005 20.754H57.8975C57.9668 21.0313 58.1315 21.248 58.3915 21.404C58.6515 21.5687 58.9721 21.651 59.3535 21.651C59.8128 21.651 60.1768 21.5167 60.4455 21.248C60.7228 20.988 60.8615 20.5677 60.8615 19.987V18.96C60.6448 19.298 60.3458 19.5753 59.9645 19.792C59.5831 20 59.1368 20.104 58.6255 20.104C58.0275 20.104 57.4858 19.9523 57.0005 19.649C56.5151 19.337 56.1295 18.8993 55.8435 18.336C55.5661 17.764 55.4275 17.1053 55.4275 16.36C55.4275 15.6147 55.5661 14.9603 55.8435 14.397C56.1295 13.8337 56.5151 13.4003 57.0005 13.097C57.4858 12.7937 58.0275 12.642 58.6255 12.642ZM60.8615 16.373C60.8615 15.8183 60.7055 15.3807 60.3935 15.06C60.0901 14.7393 59.7175 14.579 59.2755 14.579C58.8335 14.579 58.4565 14.7393 58.1445 15.06C57.8411 15.372 57.6895 15.8053 57.6895 16.36C57.6895 16.9147 57.8411 17.3567 58.1445 17.686C58.4565 18.0067 58.8335 18.167 59.2755 18.167C59.7175 18.167 60.0901 18.0067 60.3935 17.686C60.7055 17.3653 60.8615 16.9277 60.8615 16.373ZM67.9947 20.104C67.2841 20.104 66.6427 19.9523 66.0707 19.649C65.5074 19.3457 65.0611 18.9123 64.7317 18.349C64.4111 17.7857 64.2507 17.127 64.2507 16.373C64.2507 15.6277 64.4154 14.9733 64.7447 14.41C65.0741 13.838 65.5247 13.4003 66.0967 13.097C66.6687 12.7937 67.3101 12.642 68.0207 12.642C68.7314 12.642 69.3727 12.7937 69.9447 13.097C70.5167 13.4003 70.9674 13.838 71.2967 14.41C71.6261 14.9733 71.7907 15.6277 71.7907 16.373C71.7907 17.1183 71.6217 17.777 71.2837 18.349C70.9544 18.9123 70.4994 19.3457 69.9187 19.649C69.3467 19.9523 68.7054 20.104 67.9947 20.104ZM67.9947 18.18C68.4194 18.18 68.7791 18.024 69.0737 17.712C69.3771 17.4 69.5287 16.9537 69.5287 16.373C69.5287 15.7923 69.3814 15.346 69.0867 15.034C68.8007 14.722 68.4454 14.566 68.0207 14.566C67.5874 14.566 67.2277 14.722 66.9417 15.034C66.6557 15.3373 66.5127 15.7837 66.5127 16.373C66.5127 16.9537 66.6514 17.4 66.9287 17.712C67.2147 18.024 67.5701 18.18 67.9947 18.18ZM75.1931 10.38V20H72.9701V10.38H75.1931ZM77.922 11.992C77.532 11.992 77.2114 11.8793 76.96 11.654C76.7174 11.42 76.596 11.134 76.596 10.796C76.596 10.4493 76.7174 10.1633 76.96 9.938C77.2114 9.704 77.532 9.587 77.922 9.587C78.3034 9.587 78.6154 9.704 78.858 9.938C79.1094 10.1633 79.235 10.4493 79.235 10.796C79.235 11.134 79.1094 11.42 78.858 11.654C78.6154 11.8793 78.3034 11.992 77.922 11.992ZM79.027 12.746V20H76.804V12.746H79.027Z" fill="white"/>
<defs>
<radialGradient id="paint0_radial_1_2" cx="0" cy="0" r="1" gradientUnits="userSpaceOnUse" gradientTransform="translate(-3.00503 15.023) rotate(-10.029) scale(17.9572 17.784)">
<stop stop-color="#00B0BB"/>
<stop offset="1" stop-color="#00DB65"/>
</radialGradient>
<linearGradient id="paint1_linear_1_2" x1="7.39036" y1="4.81308" x2="1.62975" y2="18.6894" gradientUnits="userSpaceOnUse">
<stop stop-color="#40E218"/>
<stop offset="1"/>
</linearGradient>
<linearGradient id="paint2_linear_1_2" x1="7.94816" y1="8.01562" x2="1.7612" y2="18.746" gradientUnits="userSpaceOnUse">
<stop/>
<stop offset="1" stop-opacity="0"/>
</linearGradient>
<radialGradient id="paint3_radial_1_2" cx="0" cy="0" r="1" gradientUnits="userSpaceOnUse" gradientTransform="translate(8.11404 20.8822) rotate(-75.7542) scale(21.6246 23.7772)">
<stop stop-color="#0600BB"/>
<stop offset="0.712616" stop-color="#ED6678"/>
</radialGradient>
<linearGradient id="paint4_linear_1_2" x1="7.60205" y1="5.87091" x2="15.5561" y2="16.3719" gradientUnits="userSpaceOnUse">
<stop stop-color="#DF4B4B"/>
<stop offset="1" stop-opacity="0"/>
</linearGradient>
<radialGradient id="paint5_radial_1_2" cx="0" cy="0" r="1" gradientUnits="userSpaceOnUse" gradientTransform="translate(7.84537 21.5181) rotate(-20.3525) scale(18.5603 17.32)">
<stop stop-color="#00B0BB"/>
<stop offset="1" stop-color="#00DB65"/>
</radialGradient>
<linearGradient id="paint6_linear_1_2" x1="16.8078" y1="13.0071" x2="10.0409" y2="22.9937" gradientUnits="userSpaceOnUse">
<stop stop-color="#00B1BC"/>
<stop offset="1"/>
</linearGradient>
<linearGradient id="paint7_linear_1_2" x1="16.8078" y1="13.0071" x2="14.1687" y2="23.841" gradientUnits="userSpaceOnUse">
<stop/>
<stop offset="1" stop-opacity="0"/>
</linearGradient>
</defs>
</svg>
