<svg width="160" height="24" viewBox="0 0 160 24" fill="none" xmlns="http://www.w3.org/2000/svg">
<g clip-path="url(#clip0_1_18)">
<path d="M7.95342 21.1394C4.89585 21.1304 2.2547 19.458 0.987289 16.2895C-0.280125 13.121 0.108917 9.16314 1.74362 5.61504C4.80119 5.62409 7.44234 7.29648 8.70975 10.465C9.97717 13.6335 9.58813 17.5913 7.95342 21.1394Z" fill="white"/>
<path d="M7.95342 21.1394C4.89585 21.1304 2.2547 19.458 0.987289 16.2895C-0.280125 13.121 0.108917 9.16314 1.74362 5.61504C4.80119 5.62409 7.44234 7.29648 8.70975 10.465C9.97717 13.6335 9.58813 17.5913 7.95342 21.1394Z" fill="url(#paint0_radial_1_18)"/>
<g style="mix-blend-mode:hard-light">
<path d="M7.95342 21.1394C4.89585 21.1304 2.2547 19.458 0.987289 16.2895C-0.280125 13.121 0.108917 9.16314 1.74362 5.61504C4.80119 5.62409 7.44234 7.29648 8.70975 10.465C9.97717 13.6335 9.58813 17.5913 7.95342 21.1394Z" fill="black" fill-opacity="0.5"/>
</g>
<path style="mix-blend-mode:hard-light" d="M7.95342 21.1394C4.89585 21.1304 2.2547 19.458 0.987289 16.2895C-0.280125 13.121 0.108917 9.16314 1.74362 5.61504C4.80119 5.62409 7.44234 7.29648 8.70975 10.465C9.97717 13.6335 9.58813 17.5913 7.95342 21.1394Z" fill="url(#paint1_linear_1_18)" fill-opacity="0.5"/>
<path d="M7.9354 21.1112C4.89702 21.0957 2.27411 19.4306 1.01347 16.279C-0.248373 13.1244 0.135614 9.18217 1.76165 5.64326C4.80004 5.65881 7.42295 7.32384 8.68359 10.4755C9.94543 13.63 9.56144 17.5723 7.9354 21.1112Z" stroke="url(#paint2_linear_1_18)" stroke-opacity="0.05" stroke-width="0.056338"/>
<path d="M7.31038 21.2574C11.3543 20.2215 14.8836 17.3754 16.6285 13.2361C18.3735 9.09671 17.9448 4.58749 15.8598 0.976288C11.8159 2.01214 8.2866 4.85826 6.54167 8.99762C4.79674 13.137 5.2254 17.6462 7.31038 21.2574Z" fill="white"/>
<path d="M7.31038 21.2574C11.3543 20.2215 14.8836 17.3754 16.6285 13.2361C18.3735 9.09671 17.9448 4.58749 15.8598 0.976288C11.8159 2.01214 8.2866 4.85826 6.54167 8.99762C4.79674 13.137 5.2254 17.6462 7.31038 21.2574Z" fill="url(#paint3_radial_1_18)"/>
<path d="M16.6025 13.2251C14.8642 17.349 11.3512 20.1866 7.32411 21.2248C5.25257 17.624 4.82926 13.1324 6.56764 9.00856C8.30603 4.88473 11.819 2.04707 15.8461 1.0089C17.9176 4.60968 18.3409 9.10132 16.6025 13.2251Z" stroke="url(#paint4_linear_1_18)" stroke-opacity="0.05" stroke-width="0.056338"/>
<path d="M7.23367 21.2069C9.78905 23.2373 13.2102 23.9506 16.5772 22.8141C19.9441 21.6775 22.5058 18.9445 23.7304 15.6382C21.175 13.6078 17.7538 12.8944 14.3869 14.031C11.0199 15.1676 8.45821 17.9006 7.23367 21.2069Z" fill="white"/>
<path d="M7.23367 21.2069C9.78905 23.2373 13.2102 23.9506 16.5772 22.8141C19.9441 21.6775 22.5058 18.9445 23.7304 15.6382C21.175 13.6078 17.7538 12.8944 14.3869 14.031C11.0199 15.1676 8.45821 17.9006 7.23367 21.2069Z" fill="url(#paint5_radial_1_18)"/>
<g style="mix-blend-mode:hard-light">
<path d="M7.23367 21.2069C9.78905 23.2373 13.2102 23.9506 16.5772 22.8141C19.9441 21.6775 22.5058 18.9445 23.7304 15.6382C21.175 13.6078 17.7538 12.8944 14.3869 14.031C11.0199 15.1676 8.45821 17.9006 7.23367 21.2069Z" fill="black" fill-opacity="0.2"/>
</g>
<path style="mix-blend-mode:hard-light" d="M7.23367 21.2069C9.78905 23.2373 13.2102 23.9506 16.5772 22.8141C19.9441 21.6775 22.5058 18.9445 23.7304 15.6382C21.175 13.6078 17.7538 12.8944 14.3869 14.031C11.0199 15.1676 8.45821 17.9006 7.23367 21.2069Z" fill="url(#paint6_linear_1_18)" fill-opacity="0.5"/>
<path d="M11.301 23.2685C7.9504 24.3995 4.54641 23.6935 2 21.6786C3.22474 18.3879 5.7772 15.6701 9.1287 14.5388C12.4793 13.4077 15.8832 14.1137 18.4296 16.1287C17.2049 19.4194 14.6524 22.1371 11.301 23.2685Z" stroke="url(#paint7_linear_1_18)" stroke-opacity="0.05" stroke-width="0.056338"/>
<path d="M36.56 20L33.932 15.23H33.194V20H30.116V7.364H35.282C36.278 7.364 37.124 7.538 37.82 7.886C38.528 8.234 39.056 8.714 39.404 9.326C39.752 9.926 39.926 10.598 39.926 11.342C39.926 12.182 39.686 12.932 39.206 13.592C38.738 14.252 38.042 14.72 37.118 14.996L40.034 20H36.56ZM33.194 13.052H35.102C35.666 13.052 36.086 12.914 36.362 12.638C36.65 12.362 36.794 11.972 36.794 11.468C36.794 10.988 36.65 10.61 36.362 10.334C36.086 10.058 35.666 9.92 35.102 9.92H33.194V13.052ZM41.2462 14.96C41.2462 13.928 41.4382 13.022 41.8222 12.242C42.2182 11.462 42.7522 10.862 43.4242 10.442C44.0962 10.022 44.8462 9.812 45.6742 9.812C46.3822 9.812 47.0002 9.956 47.5282 10.244C48.0682 10.532 48.4822 10.91 48.7702 11.378V9.956H51.8482V20H48.7702V18.578C48.4702 19.046 48.0502 19.424 47.5102 19.712C46.9822 20 46.3642 20.144 45.6562 20.144C44.8402 20.144 44.0962 19.934 43.4242 19.514C42.7522 19.082 42.2182 18.476 41.8222 17.696C41.4382 16.904 41.2462 15.992 41.2462 14.96ZM48.7702 14.978C48.7702 14.21 48.5542 13.604 48.1222 13.16C47.7022 12.716 47.1862 12.494 46.5742 12.494C45.9622 12.494 45.4402 12.716 45.0082 13.16C44.5882 13.592 44.3782 14.192 44.3782 14.96C44.3782 15.728 44.5882 16.34 45.0082 16.796C45.4402 17.24 45.9622 17.462 46.5742 17.462C47.1862 17.462 47.7022 17.24 48.1222 16.796C48.5542 16.352 48.7702 15.746 48.7702 14.978ZM60.195 9.848C61.371 9.848 62.307 10.232 63.003 11C63.711 11.756 64.065 12.8 64.065 14.132V20H61.005V14.546C61.005 13.874 60.831 13.352 60.483 12.98C60.135 12.608 59.667 12.422 59.079 12.422C58.491 12.422 58.023 12.608 57.675 12.98C57.327 13.352 57.153 13.874 57.153 14.546V20H54.075V9.956H57.153V11.288C57.465 10.844 57.885 10.496 58.413 10.244C58.941 9.98 59.535 9.848 60.195 9.848ZM70.0199 9.812C70.7279 9.812 71.3459 9.956 71.8739 10.244C72.4139 10.532 72.8279 10.91 73.1159 11.378V9.956H76.1939V19.982C76.1939 20.906 76.0079 21.74 75.6359 22.484C75.2759 23.24 74.7179 23.84 73.9619 24.284C73.2179 24.728 72.2879 24.95 71.1719 24.95C69.6839 24.95 68.4779 24.596 67.5539 23.888C66.6299 23.192 66.1019 22.244 65.9699 21.044H69.0119C69.1079 21.428 69.3359 21.728 69.6959 21.944C70.0559 22.172 70.4999 22.286 71.0279 22.286C71.6639 22.286 72.1679 22.1 72.5399 21.728C72.9239 21.368 73.1159 20.786 73.1159 19.982V18.56C72.8159 19.028 72.4019 19.412 71.8739 19.712C71.3459 20 70.7279 20.144 70.0199 20.144C69.1919 20.144 68.4419 19.934 67.7699 19.514C67.0979 19.082 66.5639 18.476 66.1679 17.696C65.7839 16.904 65.5919 15.992 65.5919 14.96C65.5919 13.928 65.7839 13.022 66.1679 12.242C66.5639 11.462 67.0979 10.862 67.7699 10.442C68.4419 10.022 69.1919 9.812 70.0199 9.812ZM73.1159 14.978C73.1159 14.21 72.8999 13.604 72.4679 13.16C72.0479 12.716 71.5319 12.494 70.9199 12.494C70.3079 12.494 69.7859 12.716 69.3539 13.16C68.9339 13.592 68.7239 14.192 68.7239 14.96C68.7239 15.728 68.9339 16.34 69.3539 16.796C69.7859 17.24 70.3079 17.462 70.9199 17.462C71.5319 17.462 72.0479 17.24 72.4679 16.796C72.8999 16.352 73.1159 15.746 73.1159 14.978ZM82.9927 20.144C82.0087 20.144 81.1207 19.934 80.3287 19.514C79.5487 19.094 78.9307 18.494 78.4747 17.714C78.0307 16.934 77.8087 16.022 77.8087 14.978C77.8087 13.946 78.0367 13.04 78.4927 12.26C78.9487 11.468 79.5727 10.862 80.3647 10.442C81.1567 10.022 82.0447 9.812 83.0287 9.812C84.0127 9.812 84.9007 10.022 85.6927 10.442C86.4847 10.862 87.1087 11.468 87.5647 12.26C88.0207 13.04 88.2487 13.946 88.2487 14.978C88.2487 16.01 88.0147 16.922 87.5467 17.714C87.0907 18.494 86.4607 19.094 85.6567 19.514C84.8647 19.934 83.9767 20.144 82.9927 20.144ZM82.9927 17.48C83.5807 17.48 84.0787 17.264 84.4867 16.832C84.9067 16.4 85.1167 15.782 85.1167 14.978C85.1167 14.174 84.9127 13.556 84.5047 13.124C84.1087 12.692 83.6167 12.476 83.0287 12.476C82.4287 12.476 81.9307 12.692 81.5347 13.124C81.1387 13.544 80.9407 14.162 80.9407 14.978C80.9407 15.782 81.1327 16.4 81.5167 16.832C81.9127 17.264 82.4047 17.48 82.9927 17.48ZM92.9596 6.68V20H89.8816V6.68H92.9596ZM96.7382 8.912C96.1982 8.912 95.7542 8.756 95.4062 8.444C95.0702 8.12 94.9022 7.724 94.9022 7.256C94.9022 6.776 95.0702 6.38 95.4062 6.068C95.7542 5.744 96.1982 5.582 96.7382 5.582C97.2662 5.582 97.6982 5.744 98.0342 6.068C98.3822 6.38 98.5562 6.776 98.5562 7.256C98.5562 7.724 98.3822 8.12 98.0342 8.444C97.6982 8.756 97.2662 8.912 96.7382 8.912ZM98.2682 9.956V20H95.1902V9.956H98.2682Z" fill="#0F0F0F"/>
</g>
<defs>
<radialGradient id="paint0_radial_1_18" cx="0" cy="0" r="1" gradientUnits="userSpaceOnUse" gradientTransform="translate(-3.00504 15.023) rotate(-10.029) scale(17.9572 17.784)">
<stop stop-color="#00B0BB"/>
<stop offset="1" stop-color="#00DB65"/>
</radialGradient>
<linearGradient id="paint1_linear_1_18" x1="7.39035" y1="4.81308" x2="1.62974" y2="18.6894" gradientUnits="userSpaceOnUse">
<stop stop-color="#18E299"/>
<stop offset="1"/>
</linearGradient>
<linearGradient id="paint2_linear_1_18" x1="7.94816" y1="8.01562" x2="1.7612" y2="18.746" gradientUnits="userSpaceOnUse">
<stop/>
<stop offset="1" stop-opacity="0"/>
</linearGradient>
<radialGradient id="paint3_radial_1_18" cx="0" cy="0" r="1" gradientUnits="userSpaceOnUse" gradientTransform="translate(8.11404 20.8822) rotate(-75.7542) scale(21.6246 23.7772)">
<stop stop-color="#0600BB"/>
<stop offset="0.712616" stop-color="#ED6678"/>
</radialGradient>
<linearGradient id="paint4_linear_1_18" x1="7.60205" y1="5.87091" x2="15.5561" y2="16.3719" gradientUnits="userSpaceOnUse">
<stop/>
<stop offset="1" stop-opacity="0"/>
</linearGradient>
<radialGradient id="paint5_radial_1_18" cx="0" cy="0" r="1" gradientUnits="userSpaceOnUse" gradientTransform="translate(7.84536 21.5181) rotate(-20.3525) scale(18.5603 17.32)">
<stop stop-color="#00B0BB"/>
<stop offset="1" stop-color="#00DB65"/>
</radialGradient>
<linearGradient id="paint6_linear_1_18" x1="16.8078" y1="13.0071" x2="10.0409" y2="22.9937" gradientUnits="userSpaceOnUse">
<stop stop-color="#00B1BC"/>
<stop offset="1"/>
</linearGradient>
<linearGradient id="paint7_linear_1_18" x1="11.5406" y1="13.4882" x2="8.9015" y2="24.3221" gradientUnits="userSpaceOnUse">
<stop/>
<stop offset="1" stop-opacity="0"/>
</linearGradient>
<clipPath id="clip0_1_18">
<rect width="160" height="24" fill="white"/>
</clipPath>
</defs>
</svg>
